<?xml version="1.0" encoding="utf-8"?>
<!-- Generator: Adobe Illustrator 16.2.1, SVG Export Plug-In . SVG Version: 6.00 Build 0)  -->
<!DOCTYPE svg PUBLIC "-//W3C//DTD SVG 1.1//EN" "http://www.w3.org/Graphics/SVG/1.1/DTD/svg11.dtd">
<svg version="1.1" id="Layer_1" xmlns="http://www.w3.org/2000/svg" xmlns:xlink="http://www.w3.org/1999/xlink" x="0px" y="0px"
	 width="350px" height="156px" viewBox="130.5 319.5 350 156" enable-background="new 130.5 319.5 350 156" xml:space="preserve">
<g>
	<path fill="#EBCEAD" d="M189.956,391.765h-1.003l-1.325,6.323h0.965c1.199,0,2.151-0.344,2.858-1.032
		c0.707-0.688,1.06-1.648,1.06-2.887c0-0.782-0.218-1.378-0.653-1.789C191.423,391.97,190.789,391.765,189.956,391.765z"/>
	<path fill="#EBCEAD" d="M163.999,392.144h-1.344l-3.256,15.503h1.306c1.388,0,2.628-0.441,3.72-1.324
		c1.092-0.883,1.94-2.144,2.546-3.777c0.605-1.634,0.908-3.498,0.908-5.593c0-1.577-0.34-2.773-1.022-3.587
		C166.175,392.552,165.223,392.144,163.999,392.144z"/>
	<path fill="#EBCEAD" d="M205.441,329.561c-36.788,0-66.609,29.821-66.609,66.607s29.821,66.607,66.609,66.607
		s66.609-29.821,66.609-66.607S242.229,329.561,205.441,329.561z M173.482,405.764c-1.25,2.595-3.064,4.578-5.442,5.953
		c-2.379,1.376-5.196,2.063-8.452,2.063h-8.916l5.85-27.675h7.875c3.483,0,6.181,0.912,8.092,2.735
		c1.912,1.824,2.868,4.401,2.868,7.733C175.356,400.107,174.731,403.17,173.482,405.764z M198.815,411.963l0.757,1.817h-8.064
		l-3.691-10.071h-1.382l-2.139,10.071h-7.402l5.85-27.675h7.326c3.18,0,5.616,0.631,7.307,1.893
		c1.691,1.262,2.537,3.161,2.537,5.698c0,1.969-0.448,3.685-1.344,5.149s-2.228,2.581-3.994,3.352L198.815,411.963z M209.583,413.78
		h-7.515l5.849-27.675h7.515L209.583,413.78z M219.969,413.78L218,386.105h7.231l0.511,15.163v0.967
		c0,1.816-0.101,3.433-0.303,4.846h0.151c0.177-0.808,0.458-1.802,0.842-2.981c0.384-1.179,0.735-2.098,1.051-2.754l6.625-15.239
		h7.837l-13.724,27.675L219.969,413.78L219.969,413.78z M258.736,396.459l-1.363,6.001h-8.405l-1.079,5.225h9.029l-1.287,6.096
		H239.2l5.85-27.675h16.431l-1.23,6.001h-9.029l-0.89,4.354L258.736,396.459L258.736,396.459z"/>
</g>
<path fill="#EBCEAD" d="M284.084,413.78h-7.478v-21.562h-6.758v-6.114h20.974v6.114h-6.739L284.084,413.78L284.084,413.78z"/>
<path fill="#EBCEAD" d="M320.215,399.904c0,4.656-1.143,8.196-3.427,10.62c-2.284,2.423-5.628,3.634-10.033,3.634
	c-4.341,0-7.67-1.217-9.985-3.652c-2.316-2.436-3.474-5.981-3.474-10.639c0-4.606,1.151-8.124,3.455-10.554
	c2.303-2.429,5.65-3.644,10.042-3.644c4.404,0,7.742,1.205,10.014,3.615C319.078,391.696,320.215,395.236,320.215,399.904z
	 M301.171,399.904c0,5.352,1.861,8.026,5.584,8.026c1.894,0,3.297-0.649,4.211-1.949c0.915-1.301,1.373-3.325,1.373-6.077
	c0-2.765-0.464-4.804-1.392-6.123c-0.929-1.319-2.312-1.979-4.155-1.979C303.045,391.803,301.171,394.503,301.171,399.904z"/>
<path fill="#EBCEAD" d="M347.605,391.841c-1.779,0-3.168,0.729-4.164,2.187c-0.998,1.458-1.496,3.467-1.496,6.029
	c0,5.325,2.024,7.988,6.076,7.988c1.225,0,2.409-0.171,3.56-0.512c1.146-0.34,2.303-0.75,3.464-1.23v6.322
	c-2.31,1.023-4.922,1.533-7.837,1.533c-4.177,0-7.38-1.211-9.606-3.634c-2.228-2.424-3.342-5.926-3.342-10.507
	c0-2.863,0.54-5.382,1.619-7.553c1.078-2.17,2.631-3.839,4.656-5.007c2.024-1.167,4.408-1.751,7.146-1.751
	c2.99,0,5.851,0.65,8.574,1.95l-2.29,5.887c-1.021-0.479-2.044-0.883-3.065-1.211C349.877,392.005,348.779,391.841,347.605,391.841z
	"/>
<path fill="#EBCEAD" d="M367.533,403.709v10.071h-7.479v-27.675h9.067c7.521,0,11.282,2.726,11.282,8.178
	c0,3.206-1.565,5.686-4.694,7.439l8.064,12.059h-8.48l-5.869-10.071L367.533,403.709L367.533,403.709z M367.533,398.088h1.399
	c2.613,0,3.919-1.155,3.919-3.464c0-1.905-1.28-2.858-3.843-2.858h-1.477L367.533,398.088L367.533,398.088z"/>
<path fill="#EBCEAD" d="M403.092,413.78H386.66v-27.675h16.432v6.001h-8.953v4.354h8.291v6.001h-8.291v5.225h8.953V413.78
	L403.092,413.78z"/>
<path fill="#EBCEAD" d="M425.631,413.78l-1.363-5.188h-8.99l-1.401,5.188h-8.215l9.029-27.789h9.977l9.143,27.789H425.631z
	 M422.716,402.461l-1.191-4.544c-0.277-1.009-0.615-2.315-1.015-3.918c-0.396-1.603-0.658-2.751-0.785-3.445
	c-0.112,0.644-0.338,1.704-0.672,3.18s-1.076,4.385-2.225,8.727H422.716L422.716,402.461z"/>
<path fill="#EBCEAD" d="M446.68,413.78h-7.479v-21.562h-6.758v-6.114h20.975v6.114h-6.738V413.78z"/>
<path fill="#EBCEAD" d="M473.426,413.78h-16.432v-27.675h16.432v6.001h-8.953v4.354h8.291v6.001h-8.291v5.225h8.953V413.78
	L473.426,413.78z"/>
</svg>
